<?xml version="1.0" encoding="UTF-8" standalone="no"?>
<!-- Created with Inkscape (http://www.inkscape.org/) -->

<svg
   width="1122.5197"
   height="793.70081"
   viewBox="0 0 296.99999 210"
   version="1.1"
   id="svg1"
   xml:space="preserve"
   xmlns:xlink="http://www.w3.org/1999/xlink"
   xmlns="http://www.w3.org/2000/svg"
   xmlns:svg="http://www.w3.org/2000/svg"><defs
     id="defs1"><clipPath
       clipPathUnits="userSpaceOnUse"
       id="clipPath3444">&#10;      <path
   d="M 11.52,162 C 11.52,81.677 135.307,16.561 288,16.561 v 0 c 152.693,0 276.481,65.116 276.481,145.439 v 0 c 0,80.322 -123.788,145.439 -276.481,145.439 v 0 C 135.307,307.439 11.52,242.322 11.52,162"
   id="path3446" />&#10;    </clipPath><radialGradient
       cx="0"
       cy="0"
       fx="0"
       fy="0"
       gradientTransform="matrix(363.05789,0,0,-363.05789,177.52002,256.30713)"
       gradientUnits="userSpaceOnUse"
       id="radialGradient3452"
       r="1"
       spreadMethod="pad">&#10;      <stop
   id="stop3454"
   offset="0"
   style="stop-opacity:1;stop-color:#aeb2d5" />&#10;      <stop
   id="stop3456"
   offset="0.3"
   style="stop-opacity:1;stop-color:#aeb2d5" />&#10;      <stop
   id="stop3458"
   offset="0.75"
   style="stop-opacity:1;stop-color:#484c89" />&#10;      <stop
   id="stop3460"
   offset="1"
   style="stop-opacity:1;stop-color:#484c89" />&#10;    </radialGradient><clipPath
       clipPathUnits="userSpaceOnUse"
       id="clipPath3468">&#10;      <path
   d="M 0,324 H 576 V 0 H 0 Z"
   id="path3470" />&#10;    </clipPath><clipPath
       clipPathUnits="userSpaceOnUse"
       id="clipPath3480">&#10;      <path
   d="M 0,324 H 576 V 0 H 0 Z"
   id="path3482" />&#10;    </clipPath><radialGradient
       xlink:href="#radialGradient3452"
       id="radialGradient107"
       gradientUnits="userSpaceOnUse"
       gradientTransform="matrix(363.05789,0,0,-363.05789,177.52002,256.30713)"
       cx="0"
       cy="0"
       fx="0"
       fy="0"
       r="1"
       spreadMethod="pad" /><style
       id="style1-9">&#10;      .a {&#10;        fill: none;&#10;      }&#10;&#10;      .b {&#10;        clip-path: url(#a);&#10;      }&#10;&#10;      .c {&#10;        fill: #58595b;&#10;      }&#10;    </style></defs><g
     id="layer1"
     transform="translate(-614)"><text
       xml:space="preserve"
       style="font-size:11.0581px;line-height:1.25;font-family:'Space Mono';-inkscape-font-specification:'Space Mono, Normal';letter-spacing:0.466084px;stroke-width:0.152814"
       x="629.16998"
       y="26.228142"
       id="text92"><tspan
         id="tspan92"
         style="stroke-width:0.152814"
         x="629.16998"
         y="26.228142">in the beginning....</tspan></text><g
       id="g107"
       transform="matrix(0.11451161,0,0,-0.11451161,836.97194,41.937091)">&#10;    <g
   id="g95">&#10;      <g
   clip-path="url(#clipPath3444)"
   id="g94">&#10;        <g
   id="g93">&#10;          <g
   id="g92">&#10;            <path
   d="M 11.52,162 C 11.52,81.677 135.307,16.561 288,16.561 v 0 c 152.693,0 276.481,65.116 276.481,145.439 v 0 c 0,80.322 -123.788,145.439 -276.481,145.439 v 0 C 135.307,307.439 11.52,242.322 11.52,162"
   id="path92"
   style="fill:url(#radialGradient107);stroke:none" />&#10;          </g>&#10;        </g>&#10;      </g>&#10;    </g>&#10;    <g
   id="g98">&#10;      <g
   clip-path="url(#clipPath3468)"
   id="g97">&#10;        <g
   id="g96"
   transform="translate(288,27.3594)">&#10;          <path
   d="M 0,0 C 146.729,0 265.68,60.281 265.68,134.641 265.68,209 146.729,269.282 0,269.282 -146.729,269.282 -265.68,209 -265.68,134.641 -265.68,60.281 -146.729,0 0,0"
   id="path95"
   style="fill:#777bb3;fill-opacity:1;fill-rule:nonzero;stroke:none" />&#10;        </g>&#10;      </g>&#10;    </g>&#10;    <g
   id="g106">&#10;      <g
   clip-path="url(#clipPath3480)"
   id="g105">&#10;        <g
   id="g99"
   transform="translate(161.7344,145.3066)">&#10;          <path
   d="m 0,0 c 12.065,0 21.072,2.225 26.771,6.611 5.638,4.341 9.532,11.862 11.573,22.353 1.903,9.806 1.178,16.653 -2.154,20.348 C 32.783,53.086 25.417,55 14.297,55 H -4.984 L -15.673,0 Z m -63.063,-67.75 c -0.895,0 -1.745,0.4 -2.314,1.092 -0.57,0.691 -0.801,1.601 -0.63,2.48 L -37.679,81.573 C -37.405,82.982 -36.17,84 -34.734,84 H 26.32 C 45.508,84 59.79,78.79 68.767,68.513 77.792,58.182 80.579,43.741 77.05,25.592 75.614,18.198 73.144,11.331 69.709,5.183 66.27,-0.972 61.725,-6.667 56.198,-11.747 49.582,-17.939 42.094,-22.429 33.962,-25.071 25.959,-27.678 15.681,-29 3.414,-29 h -24.722 l -7.06,-36.322 c -0.274,-1.41 -1.508,-2.428 -2.944,-2.428 z"
   id="path98"
   style="fill:#000000;fill-opacity:1;fill-rule:nonzero;stroke:none" />&#10;        </g>&#10;        <g
   id="g100"
   transform="translate(159.2236,197.3071)">&#10;          <path
   d="m 0,0 h 16.808 c 13.421,0 18.083,-2.945 19.667,-4.7 2.628,-2.914 3.124,-9.058 1.435,-17.767 C 36.012,-32.217 32.494,-39.13 27.452,-43.012 22.29,-46.986 13.898,-49 2.511,-49 H -9.523 Z m 28.831,35 h -61.055 c -2.872,0 -5.341,-2.036 -5.889,-4.855 l -28.328,-145.751 c -0.342,-1.759 0.12,-3.578 1.259,-4.961 1.14,-1.383 2.838,-2.183 4.63,-2.183 h 31.75 c 2.873,0 5.342,2.036 5.89,4.855 L -16.324,-84 H 5.925 c 12.582,0 23.174,1.372 31.479,4.077 8.541,2.775 16.399,7.48 23.354,13.984 5.752,5.292 10.49,11.232 14.08,17.657 3.591,6.427 6.171,13.594 7.668,21.302 3.715,19.104 0.697,34.402 -8.969,45.466 C 63.965,29.444 48.923,35 28.831,35 M -16.802,-55 H 2.511 c 12.801,0 22.336,2.411 28.601,7.234 6.266,4.824 10.492,12.875 12.688,24.157 2.101,10.832 1.144,18.476 -2.871,22.929 C 36.909,3.773 28.87,6 16.808,6 H -4.946 L -16.802,-55 M 28.831,29 C 47.198,29 60.597,24.18 69.019,14.539 77.44,4.898 79.976,-8.559 76.616,-25.836 75.233,-32.953 72.894,-39.46 69.601,-45.355 66.304,-51.254 61.999,-56.648 56.679,-61.539 50.339,-67.472 43.296,-71.7 35.546,-74.218 27.796,-76.743 17.925,-78 5.925,-78 h -27.196 l -7.531,-38.75 h -31.75 L -32.224,29 h 61.055"
   id="path99"
   style="fill:#ffffff;fill-opacity:1;fill-rule:nonzero;stroke:none" />&#10;        </g>&#10;        <g
   id="g101"
   transform="translate(311.583,116.3066)">&#10;          <path
   d="m 0,0 c -0.896,0 -1.745,0.4 -2.314,1.092 -0.571,0.691 -0.802,1.6 -0.631,2.48 L 9.586,68.061 C 10.778,74.194 10.484,78.596 8.759,80.456 7.703,81.593 4.531,83.5 -4.848,83.5 H -27.55 L -43.305,2.428 C -43.579,1.018 -44.814,0 -46.25,0 h -31.5 c -0.896,0 -1.745,0.4 -2.315,1.092 -0.57,0.691 -0.801,1.601 -0.63,2.48 l 28.328,145.751 c 0.274,1.409 1.509,2.427 2.945,2.427 h 31.5 c 0.896,0 1.745,-0.4 2.315,-1.091 0.57,-0.692 0.801,-1.601 0.63,-2.481 L -21.813,113 H 2.609 c 18.605,0 31.221,-3.28 38.569,-10.028 7.49,-6.884 9.827,-17.891 6.947,-32.719 L 34.945,2.428 C 34.671,1.018 33.437,0 32,0 Z"
   id="path100"
   style="fill:#000000;fill-opacity:1;fill-rule:nonzero;stroke:none" />&#10;        </g>&#10;        <g
   id="g102"
   transform="translate(293.6611,271.0571)">&#10;          <path
   d="m 0,0 h -31.5 c -2.873,0 -5.342,-2.036 -5.89,-4.855 l -28.328,-145.751 c -0.342,-1.759 0.12,-3.578 1.26,-4.961 1.14,-1.383 2.838,-2.183 4.63,-2.183 h 31.5 c 2.872,0 5.342,2.036 5.89,4.855 l 15.283,78.645 h 20.229 c 9.363,0 11.328,-2 11.407,-2.086 0.568,-0.611 1.315,-3.441 0.082,-9.781 l -12.531,-64.489 c -0.342,-1.759 0.12,-3.578 1.26,-4.961 1.14,-1.383 2.838,-2.183 4.63,-2.183 h 32 c 2.872,0 5.342,2.036 5.89,4.855 l 13.179,67.825 c 3.093,15.921 0.447,27.864 -7.861,35.5 -7.928,7.281 -21.208,10.82 -40.599,10.82 H -0.253 L 5.89,-7.145 C 6.231,-5.386 5.77,-3.566 4.63,-2.184 3.49,-0.801 1.792,0 0,0 m 0,-6 -7.531,-38.75 h 28.062 c 17.657,0 29.836,-3.082 36.539,-9.238 6.703,-6.16 8.711,-16.141 6.032,-29.938 l -13.18,-67.824 h -32 l 12.531,64.488 c 1.426,7.336 0.902,12.34 -1.574,15.008 -2.477,2.668 -7.746,4.004 -15.805,4.004 h -25.176 l -16.226,-83.5 h -31.5 L -31.5,-6 H 0"
   id="path101"
   style="fill:#ffffff;fill-opacity:1;fill-rule:nonzero;stroke:none" />&#10;        </g>&#10;        <g
   id="g103"
   transform="translate(409.5498,145.3066)">&#10;          <path
   d="m 0,0 c 12.065,0 21.072,2.225 26.771,6.611 5.638,4.34 9.532,11.861 11.574,22.353 1.903,9.806 1.178,16.653 -2.155,20.348 C 32.783,53.086 25.417,55 14.297,55 H -4.984 L -15.673,0 Z m -63.062,-67.75 c -0.895,0 -1.745,0.4 -2.314,1.092 -0.57,0.691 -0.802,1.601 -0.631,2.48 L -37.679,81.573 C -37.404,82.982 -36.17,84 -34.733,84 H 26.32 C 45.509,84 59.79,78.79 68.768,68.513 77.793,58.183 80.579,43.742 77.051,25.592 75.613,18.198 73.144,11.331 69.709,5.183 66.27,-0.972 61.725,-6.667 56.198,-11.747 49.582,-17.939 42.094,-22.429 33.962,-25.071 25.959,-27.678 15.681,-29 3.414,-29 h -24.723 l -7.057,-36.322 c -0.275,-1.41 -1.509,-2.428 -2.946,-2.428 z"
   id="path102"
   style="fill:#000000;fill-opacity:1;fill-rule:nonzero;stroke:none" />&#10;        </g>&#10;        <g
   id="g104"
   transform="translate(407.0391,197.3071)">&#10;          <path
   d="M 0,0 H 16.808 C 30.229,0 34.891,-2.945 36.475,-4.7 39.104,-7.614 39.6,-13.758 37.91,-22.466 36.012,-32.217 32.493,-39.13 27.452,-43.012 22.29,-46.986 13.898,-49 2.511,-49 H -9.522 Z m 28.831,35 h -61.054 c -2.872,0 -5.341,-2.036 -5.889,-4.855 L -66.44,-115.606 c -0.342,-1.759 0.12,-3.578 1.259,-4.961 1.14,-1.383 2.838,-2.183 4.63,-2.183 h 31.75 c 2.872,0 5.342,2.036 5.89,4.855 L -16.324,-84 H 5.925 c 12.582,0 23.174,1.372 31.479,4.077 8.541,2.775 16.401,7.481 23.356,13.986 5.752,5.291 10.488,11.23 14.078,17.655 3.591,6.427 6.171,13.594 7.668,21.302 3.715,19.105 0.697,34.403 -8.969,45.467 C 63.965,29.444 48.924,35 28.831,35 M -16.801,-55 H 2.511 c 12.801,0 22.336,2.411 28.601,7.234 6.267,4.824 10.492,12.875 12.688,24.157 2.102,10.832 1.145,18.476 -2.871,22.929 C 36.909,3.773 28.87,6 16.808,6 H -4.946 L -16.801,-55 M 28.831,29 C 47.198,29 60.597,24.18 69.019,14.539 77.441,4.898 79.976,-8.559 76.616,-25.836 75.233,-32.953 72.894,-39.46 69.601,-45.355 66.304,-51.254 61.999,-56.648 56.679,-61.539 50.339,-67.472 43.296,-71.7 35.546,-74.218 27.796,-76.743 17.925,-78 5.925,-78 h -27.196 l -7.53,-38.75 h -31.75 L -32.223,29 h 61.054"
   id="path103"
   style="fill:#ffffff;fill-opacity:1;fill-rule:nonzero;stroke:none" />&#10;        </g>&#10;      </g>&#10;    </g>&#10;  </g><rect
       style="fill:#c3c4d1;fill-opacity:0.778823;stroke:none;stroke-width:0.356847;stroke-opacity:0.339288;paint-order:stroke fill markers"
       id="rect92"
       width="296.99994"
       height="210"
       x="614.00006"
       y="0" /><rect
       style="fill:#ffffff;fill-opacity:1;stroke:#000000;stroke-width:0.902593;stroke-dasharray:none;stroke-opacity:1;paint-order:stroke fill markers"
       id="rect107"
       width="217.35648"
       height="125.28744"
       x="630.24609"
       y="57.200668" /><text
       xml:space="preserve"
       style="font-style:normal;font-variant:normal;font-weight:normal;font-stretch:normal;font-size:8.21473px;line-height:1.25;font-family:'Fira Mono';-inkscape-font-specification:'Fira Mono, Normal';font-variant-ligatures:normal;font-variant-caps:normal;font-variant-numeric:normal;font-variant-east-asian:normal;letter-spacing:0.34624px;stroke-width:0.113521"
       x="640.36713"
       y="75.877838"
       id="text81"><tspan
         style="font-style:normal;font-variant:normal;font-weight:normal;font-stretch:normal;font-size:8.21473px;font-family:'Fira Mono';-inkscape-font-specification:'Fira Mono, Normal';font-variant-ligatures:normal;font-variant-caps:normal;font-variant-numeric:normal;font-variant-east-asian:normal;stroke-width:0.113521"
         x="640.36713"
         y="75.877838"
         id="tspan82">&lt;html&gt;</tspan><tspan
         style="font-style:normal;font-variant:normal;font-weight:normal;font-stretch:normal;font-size:8.21473px;font-family:'Fira Mono';-inkscape-font-specification:'Fira Mono, Normal';font-variant-ligatures:normal;font-variant-caps:normal;font-variant-numeric:normal;font-variant-east-asian:normal;stroke-width:0.113521"
         x="640.36713"
         y="86.146248"
         id="tspan83">&lt;head&gt;</tspan><tspan
         style="font-style:normal;font-variant:normal;font-weight:normal;font-stretch:normal;font-size:8.21473px;font-family:'Fira Mono';-inkscape-font-specification:'Fira Mono, Normal';font-variant-ligatures:normal;font-variant-caps:normal;font-variant-numeric:normal;font-variant-east-asian:normal;stroke-width:0.113521"
         x="640.36713"
         y="96.414665"
         id="tspan84">  &lt;title&gt;demo&lt;/title&gt;</tspan><tspan
         style="font-style:normal;font-variant:normal;font-weight:normal;font-stretch:normal;font-size:8.21473px;font-family:'Fira Mono';-inkscape-font-specification:'Fira Mono, Normal';font-variant-ligatures:normal;font-variant-caps:normal;font-variant-numeric:normal;font-variant-east-asian:normal;stroke-width:0.113521"
         x="640.36713"
         y="106.68307"
         id="tspan85">&lt;/head&gt;</tspan><tspan
         style="font-style:normal;font-variant:normal;font-weight:normal;font-stretch:normal;font-size:8.21473px;font-family:'Fira Mono';-inkscape-font-specification:'Fira Mono, Normal';font-variant-ligatures:normal;font-variant-caps:normal;font-variant-numeric:normal;font-variant-east-asian:normal;stroke-width:0.113521"
         x="640.36713"
         y="116.95149"
         id="tspan86">&lt;body&gt;</tspan><tspan
         style="font-style:normal;font-variant:normal;font-weight:normal;font-stretch:normal;font-size:8.21473px;font-family:'Fira Mono';-inkscape-font-specification:'Fira Mono, Normal';font-variant-ligatures:normal;font-variant-caps:normal;font-variant-numeric:normal;font-variant-east-asian:normal;stroke-width:0.113521"
         x="640.36713"
         y="127.2199"
         id="tspan142">  <tspan
   style="font-style:normal;font-variant:normal;font-weight:normal;font-stretch:normal;font-size:8.21473px;font-family:'Fira Mono';-inkscape-font-specification:'Fira Mono, Normal';font-variant-ligatures:normal;font-variant-caps:normal;font-variant-numeric:normal;font-variant-east-asian:normal;fill:#bf07bf;fill-opacity:1"
   id="tspan186">&lt;?php</tspan></tspan><tspan
         style="font-style:normal;font-variant:normal;font-weight:normal;font-stretch:normal;font-size:8.21473px;font-family:'Fira Mono';-inkscape-font-specification:'Fira Mono, Normal';font-variant-ligatures:normal;font-variant-caps:normal;font-variant-numeric:normal;font-variant-east-asian:normal;fill:#bf07bf;fill-opacity:1;stroke-width:0.113521"
         x="640.36713"
         y="137.48831"
         id="tspan88">      echo &quot;hello world!&quot;;</tspan><tspan
         style="font-style:normal;font-variant:normal;font-weight:normal;font-stretch:normal;font-size:8.21473px;font-family:'Fira Mono';-inkscape-font-specification:'Fira Mono, Normal';font-variant-ligatures:normal;font-variant-caps:normal;font-variant-numeric:normal;font-variant-east-asian:normal;fill:#bf07bf;fill-opacity:1;stroke-width:0.113521"
         x="640.36713"
         y="147.75673"
         id="tspan89">  ?&gt;</tspan><tspan
         style="font-style:normal;font-variant:normal;font-weight:normal;font-stretch:normal;font-size:8.21473px;font-family:'Fira Mono';-inkscape-font-specification:'Fira Mono, Normal';font-variant-ligatures:normal;font-variant-caps:normal;font-variant-numeric:normal;font-variant-east-asian:normal;stroke-width:0.113521"
         x="640.36713"
         y="158.02515"
         id="tspan90">&lt;/body&gt;</tspan><tspan
         style="font-style:normal;font-variant:normal;font-weight:normal;font-stretch:normal;font-size:8.21473px;font-family:'Fira Mono';-inkscape-font-specification:'Fira Mono, Normal';font-variant-ligatures:normal;font-variant-caps:normal;font-variant-numeric:normal;font-variant-east-asian:normal;stroke-width:0.113521"
         x="640.36713"
         y="168.29355"
         id="tspan91">&lt;/html&gt;</tspan></text><rect
       style="fill:#dcdcdc;fill-opacity:1;stroke:#000000;stroke-width:0.764;stroke-dasharray:none;stroke-opacity:1;paint-order:stroke fill markers"
       id="rect108"
       width="59.921398"
       height="17.879204"
       x="630.12695"
       y="-57.01717"
       transform="scale(1,-1)" /><text
       xml:space="preserve"
       style="font-style:normal;font-variant:normal;font-weight:normal;font-stretch:normal;font-size:7.05556px;line-height:1.25;font-family:'Open Sans';-inkscape-font-specification:'Open Sans, Normal';font-variant-ligatures:normal;font-variant-caps:normal;font-variant-numeric:normal;font-variant-east-asian:normal;letter-spacing:0.466084px;stroke-width:0.152814"
       x="638.77075"
       y="50.178127"
       id="text146"><tspan
         id="tspan146"
         x="638.77075"
         y="50.178127"
         style="font-weight:bold">index.php</tspan></text></g><style
     type="text/css"
     id="style1">&#10;	.st0{fill:#DD0031;}&#10;	.st1{fill:#C3002F;}&#10;	.st2{fill:#FFFFFF;}&#10;</style></svg>
