<?xml version="1.0" encoding="UTF-8" standalone="no"?>
<!-- Created with Inkscape (http://www.inkscape.org/) -->

<svg
   width="1122.5197"
   height="793.70081"
   viewBox="0 0 296.99999 210"
   version="1.1"
   id="svg1"
   xml:space="preserve"
   xmlns="http://www.w3.org/2000/svg"
   xmlns:svg="http://www.w3.org/2000/svg"><defs
     id="defs1"><style
       id="style1-9">&#10;      .a {&#10;        fill: none;&#10;      }&#10;&#10;      .b {&#10;        clip-path: url(#a);&#10;      }&#10;&#10;      .c {&#10;        fill: #58595b;&#10;      }&#10;    </style></defs><g
     id="layer1"><text
       xml:space="preserve"
       style="font-size:11.7553px;line-height:1.25;font-family:'Space Mono';-inkscape-font-specification:'Space Mono, Normal';letter-spacing:0.49547px;stroke-width:0.162449"
       x="15.715188"
       y="89.435692"
       id="text1"><tspan
         id="tspan1"
         style="font-weight:bold;stroke-width:0.162449"
         x="15.715188"
         y="89.435692" /><tspan
         style="stroke-width:0.162449"
         x="15.715188"
         y="104.12981"
         id="tspan4">JSX w/o React &amp; other lightweight</tspan><tspan
         style="stroke-width:0.162449"
         x="15.715188"
         y="118.82394"
         id="tspan5">templating alternatives </tspan></text><text
       xml:space="preserve"
       style="font-size:10.1571px;line-height:1.25;font-family:'Space Mono';-inkscape-font-specification:'Space Mono, Normal';letter-spacing:0.428107px;opacity:0.720252;stroke-width:0.140363"
       x="17.796432"
       y="177.01068"
       id="text6"><tspan
         id="tspan6"
         style="stroke-width:0.140363"
         x="17.796432"
         y="177.01068">by Derrick</tspan></text><text
       xml:space="preserve"
       style="font-size:16.7906px;line-height:1.25;font-family:'Space Mono';-inkscape-font-specification:'Space Mono, Normal';letter-spacing:0.707702px;stroke-width:0.232033"
       x="15.272079"
       y="82.672531"
       id="text10"><tspan
         style="font-weight:bold;stroke-width:0.232033"
         x="15.272079"
         y="82.672531"
         id="tspan10">Frameworkless rendering</tspan></text><path
       style="fill:#c3c4d1;fill-opacity:0.26069;stroke:none;stroke-width:0.264583px;stroke-linecap:butt;stroke-linejoin:miter;stroke-opacity:1"
       d="m 0.79058883,143.21823 c 0,0 92.54436717,23.51416 192.70412117,-43.19543 C 293.65447,33.313211 297,0 297,0 V 210 H 0 Z"
       id="path91" /><text
       xml:space="preserve"
       style="font-size:10.1571px;line-height:1.25;font-family:'Space Mono';-inkscape-font-specification:'Space Mono, Normal';letter-spacing:0.428107px;fill:#2e5eda;fill-opacity:1;stroke-width:0.140363"
       x="17.623762"
       y="195.32964"
       id="text185"><tspan
         id="tspan185"
         style="font-weight:bold;fill:#2e5eda;fill-opacity:1;stroke-width:0.140363"
         x="17.623762"
         y="195.32964">hi@cjam.io</tspan></text><text
       xml:space="preserve"
       style="font-size:10.1571px;line-height:1.25;font-family:'Space Mono';-inkscape-font-specification:'Space Mono, Normal';letter-spacing:0.428107px;stroke-width:0.140363"
       x="107.11603"
       y="195.32964"
       id="text7"><tspan
         id="tspan7"
         style="font-weight:bold;stroke-width:0.140363"
         x="107.11603"
         y="195.32964">drschwabe</tspan></text><path
       d="m 102.95988,189.58661 c 0.10106,-0.25267 0.42954,-1.25706 -0.10738,-2.61518 0,0 -0.82751,-0.24637 -2.71623,1.01701 -0.789605,-0.20846 -1.629755,-0.24005 -2.469895,-0.24005 -0.83383,0 -1.68029,0.0315 -2.4699,0.24005 -1.888765,-1.28233 -2.716284,-1.01701 -2.716284,-1.01701 -0.536936,1.35812 -0.208463,2.36251 -0.101063,2.61518 -0.644326,0.68853 -1.029662,1.56027 -1.029662,2.64678 0,4.06805 2.62785,4.984 6.316909,4.984 3.657465,0 6.316835,-0.91595 6.316835,-4.984 0,-1.08651 -0.38532,-1.95825 -1.02332,-2.64678 m -5.293515,6.85382 c -2.60255,0 -4.718721,-0.11997 -4.718721,-2.64678 0,-0.6001 0.296893,-1.16862 0.802249,-1.62976 0.846472,-0.77698 2.293042,-0.36637 3.916472,-0.36637 1.63608,0 3.063685,-0.41061 3.916455,0.36637 0.50534,0.46114 0.82118,1.02334 0.82118,1.62976 0,2.52043 -2.12877,2.64678 -4.737635,2.64678 m -1.98349,-3.95437 c -0.51799,0 -0.94754,0.63167 -0.94754,1.40233 0,0.77699 0.42955,1.415 0.94754,1.415 0.5243,0 0.94753,-0.63169 0.94753,-1.415 0,-0.77696 -0.42323,-1.40233 -0.94753,-1.40233 m 3.96699,0 c -0.5243,0 -0.94753,0.62537 -0.94753,1.40233 0,0.78331 0.42323,1.415 0.94753,1.415 0.517995,0 0.947535,-0.63169 0.947535,-1.415 0,-0.77696 -0.40427,-1.40233 -0.947535,-1.40233 z"
       fill="currentColor"
       id="path1"
       style="stroke-width:0.631688" /></g><style
     type="text/css"
     id="style1">&#10;	.st0{fill:#DD0031;}&#10;	.st1{fill:#C3002F;}&#10;	.st2{fill:#FFFFFF;}&#10;</style></svg>
