<?xml version="1.0" encoding="UTF-8" standalone="no"?>
<!-- Created with Inkscape (http://www.inkscape.org/) -->

<svg
   width="1122.5197"
   height="793.70081"
   viewBox="0 0 296.99999 210"
   version="1.1"
   id="svg1"
   xml:space="preserve"
   xmlns="http://www.w3.org/2000/svg"
   xmlns:svg="http://www.w3.org/2000/svg"><defs
     id="defs1"><style
       id="style1-9">&#10;      .a {&#10;        fill: none;&#10;      }&#10;&#10;      .b {&#10;        clip-path: url(#a);&#10;      }&#10;&#10;      .c {&#10;        fill: #58595b;&#10;      }&#10;    </style></defs><g
     id="layer1"
     transform="translate(-3991)"><rect
       style="fill:#f7db3c;fill-opacity:0.739306;stroke:none;stroke-width:0.356847;stroke-opacity:0.339288;paint-order:stroke fill markers"
       id="rect5"
       width="296.99994"
       height="210"
       x="3991"
       y="2.4159749e-06" /><text
       xml:space="preserve"
       style="font-size:11.0581px;line-height:1.25;font-family:'Space Mono';-inkscape-font-specification:'Space Mono, Normal';letter-spacing:0.466084px;stroke-width:0.152814"
       x="4004.8679"
       y="27.465733"
       id="text8"><tspan
         style="stroke-width:0.152814"
         x="4004.8679"
         y="27.465733"
         id="tspan8">`${vanilla} templates`</tspan></text><path
       style="fill:#000000;stroke-width:1.25057"
       d="m 4265.1789,39.978728 c -4.0054,-0.523588 -6.7526,-2.325235 -8.1463,-5.342415 -0.8693,-1.88199 -1.0136,-4.465107 -0.3702,-6.625653 0.2625,-0.881606 1.1095,-2.684566 1.6779,-3.571491 0.6202,-0.967998 2.4439,-3.676492 3.4001,-5.049803 0.4865,-0.698818 1.0408,-1.508812 1.2316,-1.799986 0.4683,-0.714079 1.7063,-2.496973 2.1369,-3.076936 l 0.349,-0.470098 h 3.6481 c 2.6134,0 3.648,0.0335 3.648,0.118117 0,0.06497 -0.7742,1.154494 -1.7205,2.421175 -0.9463,1.266681 -2.2409,3.01219 -2.8767,3.878909 -0.6359,0.86672 -1.2725,1.70301 -1.4145,1.858424 -0.3442,0.376381 -0.2403,0.525187 0.2685,0.384189 0.652,-0.180716 2.9183,-0.04162 3.7844,0.232262 2.3387,0.739545 3.9738,2.113966 5.0643,4.256847 1.0273,2.018564 1.1708,4.429241 0.3977,6.676281 -0.6136,1.783469 -1.8412,3.359095 -3.4034,4.36819 -1.4978,0.967533 -2.8619,1.444138 -4.8605,1.698191 -1.3071,0.166157 -1.8176,0.174099 -2.8144,0.0438 z m 2.5318,-5.127804 c 1.1598,-0.277008 2.0907,-1.104828 2.5765,-2.291081 0.1417,-0.346118 0.1903,-0.749684 0.1903,-1.581617 1e-4,-1.06338 -0.017,-1.151401 -0.3647,-1.835898 -0.4658,-0.918255 -1.1813,-1.547121 -2.1235,-1.866392 -0.9794,-0.331925 -2.4312,-0.265005 -3.3111,0.152622 -1.4729,0.69913 -2.1948,1.854533 -2.1948,3.513049 0,1.27031 0.2938,2.016994 1.1549,2.936036 0.9016,0.962192 2.5098,1.346536 4.0724,0.973281 z m -26.1918,5.058878 c -2.0997,-0.224611 -4.3743,-0.984589 -5.9984,-2.00424 -0.8424,-0.528821 -1.9425,-1.398699 -1.9426,-1.535921 -1e-4,-0.08857 3.8956,-3.946242 4.0335,-3.994023 0.059,-0.02045 0.3851,0.217783 0.725,0.529407 0.8385,0.768888 0.8358,0.766947 1.6609,1.179299 1.332,0.665599 1.7521,0.763753 3.2686,0.763753 1.4977,0 1.7888,-0.07082 2.5792,-0.627402 0.6138,-0.432219 0.9679,-1.132443 0.9679,-1.913637 0,-0.770874 -0.1808,-1.173673 -0.7696,-1.714685 -0.6744,-0.619659 -1.4146,-0.962414 -3.7193,-1.722307 -3.993,-1.316528 -5.2724,-2.064086 -6.3993,-3.739283 -0.8979,-1.334837 -1.0114,-1.75726 -1.017,-3.782588 0,-1.431641 0.03,-1.842623 0.1873,-2.276453 0.8721,-2.401596 2.5384,-3.973203 5.312,-5.010237 1.3174,-0.492531 4.5372,-0.790001 6.0593,-0.559806 1.0171,0.153812 2.2349,0.41882 2.5171,0.54778 0.1163,0.05321 0.5454,0.219685 0.953,0.369949 1.2637,0.465791 3.3384,1.763262 3.3331,2.084466 0,0.07292 -0.8724,1.033444 -1.9361,2.13451 l -1.934,2.00194 -0.6438,-0.572538 c -0.7202,-0.640345 -1.7279,-1.19468 -2.5881,-1.423592 -0.7514,-0.199996 -2.334,-0.196078 -3.0075,0.0075 -0.7444,0.22495 -1.5123,0.769021 -1.7605,1.247332 -0.2636,0.508163 -0.2846,1.499943 -0.043,2.009968 0.3054,0.643582 1.3136,1.22775 3.1269,1.811797 0.4948,0.159399 0.9951,0.329594 1.1115,0.378211 0.1163,0.04862 0.7358,0.265619 1.3765,0.482225 2.5727,0.869916 4.0776,1.864607 5.1347,3.393826 0.8184,1.1839 0.9861,1.733144 1.037,3.397894 0.054,1.736537 -0.1138,2.558569 -0.8041,3.944388 -0.9765,1.961833 -2.9061,3.488053 -5.2305,4.137209 -1.6339,0.456291 -3.8747,0.6388 -5.5901,0.45531 z m -28.1154,-0.693515 c -0.028,-0.07312 -0.039,-5.75526 -0.024,-12.626974 l 0.027,-12.494025 8.6972,-0.02709 c 6.9069,-0.02151 8.7051,2.86e-4 8.7352,0.105886 0.021,0.07313 0.024,1.240333 0.013,2.593784 l -0.03,2.460821 -5.6343,0.0274 -5.6344,0.0274 -0.029,2.355865 -0.029,2.355866 h 5.349 5.3491 v 2.376086 c 0,1.409072 -0.041,2.401735 -0.1013,2.439108 -0.056,0.03467 -2.4351,0.06048 -5.2868,0.05736 -3.5689,-0.0039 -5.2065,0.02959 -5.2546,0.107449 -0.088,0.141432 -0.084,4.939124 0,5.080871 0.04,0.06575 2.2327,0.103759 5.9852,0.103759 h 5.9212 l 0.061,0.244901 c 0.034,0.134695 0.046,1.290128 0.029,2.567627 l -0.032,2.32273 -9.0295,0.02706 c -7.1676,0.02149 -9.0399,-3.47e-4 -9.0801,-0.105886 z"
       id="path51" /><text
       xml:space="preserve"
       style="font-size:11.0581px;line-height:1.25;font-family:'Space Mono';-inkscape-font-specification:'Space Mono, Normal';letter-spacing:0.466084px;stroke-width:0.152814"
       x="4004.8679"
       y="66.215103"
       id="text96"><tspan
         style="font-weight:bold;stroke-width:0.152814"
         x="4004.8679"
         y="66.215103"
         id="tspan96">pros</tspan></text><text
       xml:space="preserve"
       style="font-size:11.0581px;line-height:1.25;font-family:'Space Mono';-inkscape-font-specification:'Space Mono, Normal';letter-spacing:0.466084px;stroke-width:0.152814"
       x="4004.8679"
       y="127.16605"
       id="text97"><tspan
         style="font-weight:bold;stroke-width:0.152814"
         x="4004.8679"
         y="127.16605"
         id="tspan97">cons</tspan></text><path
       fill="currentColor"
       d="m 4008.8269,82.523725 -3.384,-3.384021 1.1844,-1.184411 2.1996,2.19961 4.7377,-4.737621 1.1845,1.184387 z"
       id="path1-23"
       style="stroke-width:0.846007" /><text
       xml:space="preserve"
       style="font-size:9.97274px;line-height:1.25;font-family:'Space Mono';-inkscape-font-specification:'Space Mono, Normal';letter-spacing:0.420337px;stroke-width:0.137815"
       x="4021.4717"
       y="81.971191"
       id="text98"><tspan
         style="font-weight:normal;stroke-width:0.137815"
         x="4021.4717"
         y="81.971191"
         id="tspan98">vanilla JS</tspan></text><path
       fill="currentColor"
       d="m 4008.8269,97.784819 -3.384,-3.384023 1.1844,-1.184411 2.1996,2.19961 4.7377,-4.73762 1.1845,1.184387 z"
       id="path138"
       style="stroke-width:0.846007" /><text
       xml:space="preserve"
       style="font-size:9.97274px;line-height:1.25;font-family:'Space Mono';-inkscape-font-specification:'Space Mono, Normal';letter-spacing:0.420337px;stroke-width:0.137815"
       x="4021.4717"
       y="97.232277"
       id="text138"><tspan
         style="font-weight:normal;stroke-width:0.137815"
         x="4021.4717"
         y="97.232277"
         id="tspan138">browser or server</tspan></text><text
       xml:space="preserve"
       style="font-size:9.97274px;line-height:1.25;font-family:'Space Mono';-inkscape-font-specification:'Space Mono, Normal';letter-spacing:0.420337px;stroke-width:0.137815"
       x="4021.4717"
       y="144.22218"
       id="text141"><tspan
         style="font-weight:normal;stroke-width:0.137815"
         x="4021.4717"
         y="144.22218"
         id="tspan141">not reactive</tspan></text><text
       xml:space="preserve"
       style="font-size:9.97274px;line-height:1.25;font-family:'Space Mono';-inkscape-font-specification:'Space Mono, Normal';letter-spacing:0.420337px;stroke-width:0.137815"
       x="4021.4717"
       y="161.33539"
       id="text143"><tspan
         style="font-weight:normal;stroke-width:0.137815"
         x="4021.4717"
         y="161.33539"
         id="tspan143">iterating isn't pretty</tspan></text><text
       xml:space="preserve"
       style="font-size:9.97274px;line-height:1.25;font-family:'Space Mono';-inkscape-font-specification:'Space Mono, Normal';letter-spacing:0.420337px;stroke-width:0.137815"
       x="4021.4717"
       y="179.39749"
       id="text151"><tspan
         style="font-weight:normal;stroke-width:0.137815"
         x="4021.4717"
         y="179.39749"
         id="tspan151">not really 'rendering' intelligently</tspan><tspan
         style="font-weight:normal;stroke-width:0.137815"
         x="4021.4717"
         y="191.86342"
         id="tspan152">ie- lacks DOM optimizations </tspan></text><text
       xml:space="preserve"
       style="font-size:9.97274px;line-height:1.25;font-family:'Space Mono';-inkscape-font-specification:'Space Mono, Normal';letter-spacing:0.420337px;stroke-width:0.137815"
       x="4005.5625"
       y="144.22218"
       id="text153"><tspan
         style="font-weight:bold;stroke-width:0.137815"
         x="4005.5625"
         y="144.22218"
         id="tspan153">x</tspan></text><text
       xml:space="preserve"
       style="font-size:9.97274px;line-height:1.25;font-family:'Space Mono';-inkscape-font-specification:'Space Mono, Normal';letter-spacing:0.420337px;stroke-width:0.137815"
       x="4005.5625"
       y="161.31868"
       id="text154"><tspan
         style="font-weight:bold;stroke-width:0.137815"
         x="4005.5625"
         y="161.31868"
         id="tspan154">x</tspan></text><text
       xml:space="preserve"
       style="font-size:9.97274px;line-height:1.25;font-family:'Space Mono';-inkscape-font-specification:'Space Mono, Normal';letter-spacing:0.420337px;stroke-width:0.137815"
       x="4005.5625"
       y="179.20892"
       id="text155"><tspan
         style="font-weight:bold;stroke-width:0.137815"
         x="4005.5625"
         y="179.20892"
         id="tspan155">x</tspan></text></g><style
     type="text/css"
     id="style1">&#10;	.st0{fill:#DD0031;}&#10;	.st1{fill:#C3002F;}&#10;	.st2{fill:#FFFFFF;}&#10;</style></svg>
